<svg xmlns="http://www.w3.org/2000/svg" xmlns:xlink="http://www.w3.org/1999/xlink" width="797.1274057781909" height="152.87628238976458" viewBox="0 0 500 95.89200000000001">
    <path class="" d="M462.8,18.3C455.6,22.9 449.90000000000003,26.6 437.5,26.6C425.09999999999997,26.6 419.4,23 412.2,18.3C404,13 393.8,6.5 375,6.5C356.2,6.5 346,13 337.8,18.2C330.6,22.799999999999997 324.90000000000003,26.5 312.5,26.5C300.09999999999997,26.5 294.4,22.9 287.2,18.2C279,13 268.8,6.5 250,6.5C231.2,6.5 221,13 212.8,18.2C205.60000000000002,22.799999999999997 199.9,26.5 187.5,26.5C175.1,26.5 169.4,22.9 162.2,18.2C154,13 143.8,6.5 125,6.5C106.19999999999999,6.5 96,13 87.8,18.2C80.6,22.799999999999997 74.89999999999999,26.5 62.5,26.5C50.10000000000001,26.5 44.4,22.9 37.2,18.2C29,13 18.8,6.5 0,6.5V95.79200000000003H500V6.5C481.2,6.5 471,13 462.8,18.3Z" fill="#604c45">
    </path>
</svg>
